<svg width="168" height="168" viewBox="0 0 168 168" fill="none" xmlns="http://www.w3.org/2000/svg">
<path d="M84 164C128.183 164 164 128.183 164 84C164 39.8172 128.183 4 84 4C39.8172 4 4 39.8172 4 84C4 128.183 39.8172 164 84 164Z" fill="#3B82F6"/>
<path d="M84 164C128.183 164 164 128.183 164 84C164 39.8172 128.183 4 84 4C39.8172 4 4 39.8172 4 84C4 128.183 39.8172 164 84 164Z" stroke="#2563EB" stroke-width="3"/>
<path d="M54 59L29 84L54 109" stroke="white" stroke-width="12" stroke-linecap="round" stroke-linejoin="round"/>
<path d="M114 59L139 84L114 109" stroke="white" stroke-width="12" stroke-linecap="round" stroke-linejoin="round"/>
<path d="M94 49L74 119" stroke="white" stroke-width="12" stroke-linecap="round"/>
</svg>
